<?xml version="1.0" encoding="utf-8"?>
<!-- Generator: Adobe Illustrator 23.0.3, SVG Export Plug-In . SVG Version: 6.00 Build 0)  -->
<svg version="1.1" id="Camada_1" xmlns="http://www.w3.org/2000/svg" xmlns:xlink="http://www.w3.org/1999/xlink" x="0px" y="0px"
	 viewBox="0 0 100 80" style="enable-background:new 0 0 349.4 72.7;" xml:space="preserve">
<style type="text/css">
	.st0{fill:#041A24;}
	.st1{fill:url(#SVGID_1_);}
	.st2{fill:url(#SVGID_2_);}
</style>
<g>
	<g>
	</g>
	<g>
		<g>
			<g>
				<linearGradient id="SVGID_1_" gradientUnits="userSpaceOnUse" x1="47.0793" y1="43.6486" x2="71.9422" y2="18.7857">
					<stop  offset="0" style="stop-color:#B94817"/>
					<stop  offset="1" style="stop-color:#CF8F18"/>
				</linearGradient>
				<path class="st1" d="M45.6,15.7c10.4,7,25.1,17,35.7,24.1c-2.4-0.3-4.7-0.4-7-0.4c-6.6,0-12.6,1.2-18.1,3.5
					C53.9,31.3,49.9,22.6,45.6,15.7 M34.6,2.3c-0.7,0-1.4,0.3-1.9,0.8c-0.9,1-1,2.4-0.1,3.4c6.7,8.5,15.8,20,19,40.6
					c0.1,0.8,0.7,1.6,1.4,2c0.4,0.2,0.8,0.3,1.2,0.3c0.4,0,0.9-0.1,1.3-0.3c6.4-3.4,13.1-4.5,18.8-4.5c2.7,0,5.3,0.2,7.4,0.6
					c7.5,1.1,12.8,3.4,12.9,3.5c0.4,0.2,0.7,0.2,1.1,0.2c0.9,0,1.8-0.5,2.3-1.4c0.7-1.2,0.3-2.7-0.8-3.5l-1.2-0.8
					C78.6,31.6,38.2,4.2,36.1,2.8C35.6,2.5,35.1,2.3,34.6,2.3L34.6,2.3z"/>
			</g>
		</g>
		<linearGradient id="SVGID_2_" gradientUnits="userSpaceOnUse" x1="18.4334" y1="53.1263" x2="43.9172" y2="27.6425">
			<stop  offset="0" style="stop-color:#98B136"/>
			<stop  offset="5.772730e-03" style="stop-color:#98B136"/>
			<stop  offset="1" style="stop-color:#74A680"/>
		</linearGradient>
		<path class="st2" d="M13,14.8C23.4,21.9,41,33.7,65.1,50c-1-0.2-2-0.4-3.1-0.5c-3.4-0.5-6.7-0.7-10-0.7c-8.4,0-16.2,1.6-23.1,4.8
			C25.7,36.3,19.4,24.1,13,14.8 M3.1,2.3c-0.8,0-1.6,0.3-2.2,1c-1,1.1-1.1,2.8-0.2,4C8.9,17.7,20.2,32,24.2,57.4
			c0.2,1,0.8,1.8,1.7,2.3c0.4,0.2,0.9,0.3,1.4,0.3c0.5,0,1-0.1,1.5-0.4c7.9-4.3,16.2-5.6,23.4-5.6c3.4,0,6.5,0.3,9.2,0.7
			c9.2,1.4,15.9,4.3,15.9,4.3c0.4,0.2,0.8,0.3,1.3,0.3c1.1,0,2.1-0.6,2.7-1.6c0.8-1.4,0.4-3.1-1-4l-4.4-3C30.4,20.2,6.6,4.1,4.8,2.8
			C4.2,2.5,3.6,2.3,3.1,2.3L3.1,2.3z"/>
	</g>
</g>
</svg>
